<mxfile host="app.diagrams.net" modified="2021-04-16T14:12:11.931Z" agent="5.0 (Windows NT 10.0; Win64; x64) AppleWebKit/537.36 (KHTML, like Gecko) Chrome/90.0.4430.72 Safari/537.36" etag="D8zkwwyMrOTpLfrIBM5O" version="14.6.1" type="github">
  <diagram id="IN6HhxVl7J_5_wTWNXpb" name="Page-1">
    <mxGraphModel dx="1038" dy="548" grid="1" gridSize="10" guides="1" tooltips="1" connect="0" arrows="1" fold="1" page="1" pageScale="1" pageWidth="827" pageHeight="1169" math="0" shadow="0">
      <root>
        <mxCell id="0" />
        <mxCell id="1" parent="0" />
        <mxCell id="fuSIpAifDGoCz33y8CSR-1" value="文章阅读界面" style="shape=umlLifeline;perimeter=lifelinePerimeter;container=1;collapsible=0;recursiveResize=0;rounded=0;shadow=0;strokeWidth=1;" vertex="1" parent="1">
          <mxGeometry x="310" y="90" width="100" height="290" as="geometry" />
        </mxCell>
        <mxCell id="fuSIpAifDGoCz33y8CSR-2" value="" style="points=[];perimeter=orthogonalPerimeter;rounded=0;shadow=0;strokeWidth=1;" vertex="1" parent="fuSIpAifDGoCz33y8CSR-1">
          <mxGeometry x="45" y="80" width="10" height="160" as="geometry" />
        </mxCell>
        <mxCell id="fuSIpAifDGoCz33y8CSR-3" value="服务器" style="shape=umlLifeline;perimeter=lifelinePerimeter;container=1;collapsible=0;recursiveResize=0;rounded=0;shadow=0;strokeWidth=1;" vertex="1" parent="1">
          <mxGeometry x="550" y="80" width="100" height="300" as="geometry" />
        </mxCell>
        <mxCell id="fuSIpAifDGoCz33y8CSR-4" value="" style="points=[];perimeter=orthogonalPerimeter;rounded=0;shadow=0;strokeWidth=1;" vertex="1" parent="fuSIpAifDGoCz33y8CSR-3">
          <mxGeometry x="45" y="170" width="10" height="40" as="geometry" />
        </mxCell>
        <mxCell id="fuSIpAifDGoCz33y8CSR-7" value="用户" style="shape=umlActor;verticalLabelPosition=bottom;verticalAlign=top;html=1;outlineConnect=0;fontStyle=0;fontFamily=Helvetica;" vertex="1" parent="1">
          <mxGeometry x="170" y="70" width="30" height="60" as="geometry" />
        </mxCell>
        <mxCell id="fuSIpAifDGoCz33y8CSR-8" value="" style="endArrow=none;dashed=1;html=1;fontFamily=Helvetica;" edge="1" parent="1" target="fuSIpAifDGoCz33y8CSR-7">
          <mxGeometry width="50" height="50" relative="1" as="geometry">
            <mxPoint x="185" y="380" as="sourcePoint" />
            <mxPoint x="184.5" y="160" as="targetPoint" />
          </mxGeometry>
        </mxCell>
        <mxCell id="fuSIpAifDGoCz33y8CSR-9" value="" style="html=1;points=[];perimeter=orthogonalPerimeter;fontFamily=Helvetica;" vertex="1" parent="1">
          <mxGeometry x="180" y="170" width="10" height="160" as="geometry" />
        </mxCell>
        <mxCell id="fuSIpAifDGoCz33y8CSR-10" value="点击收藏按钮" style="verticalAlign=bottom;endArrow=block;shadow=0;strokeWidth=1;entryX=-0.22;entryY=0.009;entryDx=0;entryDy=0;entryPerimeter=0;exitX=1.08;exitY=0.015;exitDx=0;exitDy=0;exitPerimeter=0;" edge="1" parent="1" source="fuSIpAifDGoCz33y8CSR-9" target="fuSIpAifDGoCz33y8CSR-2">
          <mxGeometry relative="1" as="geometry">
            <mxPoint x="200" y="172" as="sourcePoint" />
            <mxPoint x="340" y="200" as="targetPoint" />
            <Array as="points" />
          </mxGeometry>
        </mxCell>
        <mxCell id="fuSIpAifDGoCz33y8CSR-13" value="收藏成功或失败" style="html=1;verticalAlign=bottom;endArrow=open;dashed=1;endSize=8;fontFamily=Helvetica;" edge="1" parent="1">
          <mxGeometry x="0.025" relative="1" as="geometry">
            <mxPoint x="350" y="330" as="sourcePoint" />
            <mxPoint x="190" y="330" as="targetPoint" />
            <Array as="points">
              <mxPoint x="268" y="330" />
            </Array>
            <mxPoint as="offset" />
          </mxGeometry>
        </mxCell>
        <mxCell id="fuSIpAifDGoCz33y8CSR-15" value="收藏成功" style="html=1;verticalAlign=bottom;endArrow=open;dashed=1;endSize=8;fontFamily=Helvetica;" edge="1" parent="1">
          <mxGeometry x="0.3333" relative="1" as="geometry">
            <mxPoint x="470" y="285" as="sourcePoint" />
            <mxPoint x="370" y="284.5" as="targetPoint" />
            <Array as="points">
              <mxPoint x="600" y="285" />
            </Array>
            <mxPoint as="offset" />
          </mxGeometry>
        </mxCell>
        <mxCell id="fuSIpAifDGoCz33y8CSR-21" value="" style="curved=1;endArrow=classic;html=1;" edge="1" parent="1">
          <mxGeometry width="50" height="50" relative="1" as="geometry">
            <mxPoint x="370" y="190" as="sourcePoint" />
            <mxPoint x="370" y="217" as="targetPoint" />
            <Array as="points">
              <mxPoint x="372" y="190" />
              <mxPoint x="392" y="190" />
              <mxPoint x="392" y="217" />
              <mxPoint x="372" y="217" />
            </Array>
          </mxGeometry>
        </mxCell>
        <mxCell id="fuSIpAifDGoCz33y8CSR-22" value="检查是否已登录" style="text;html=1;strokeColor=none;fillColor=none;align=center;verticalAlign=middle;whiteSpace=wrap;rounded=0;" vertex="1" parent="1">
          <mxGeometry x="394" y="200" width="40" height="20" as="geometry" />
        </mxCell>
        <mxCell id="fuSIpAifDGoCz33y8CSR-23" value="未登录，弹出登录界面" style="html=1;verticalAlign=bottom;endArrow=open;dashed=1;endSize=8;fontFamily=Helvetica;entryX=1;entryY=0.217;entryDx=0;entryDy=0;entryPerimeter=0;" edge="1" parent="1">
          <mxGeometry relative="1" as="geometry">
            <mxPoint x="350" y="220" as="sourcePoint" />
            <mxPoint x="190" y="219.90999999999997" as="targetPoint" />
            <Array as="points" />
          </mxGeometry>
        </mxCell>
        <mxCell id="fuSIpAifDGoCz33y8CSR-25" value="已登录，发送收藏信息至服务器" style="verticalAlign=bottom;endArrow=block;shadow=0;strokeWidth=1;entryX=0.22;entryY=0.005;entryDx=0;entryDy=0;entryPerimeter=0;" edge="1" parent="1" target="fuSIpAifDGoCz33y8CSR-4">
          <mxGeometry relative="1" as="geometry">
            <mxPoint x="368" y="250" as="sourcePoint" />
            <mxPoint x="590" y="250" as="targetPoint" />
            <Array as="points" />
          </mxGeometry>
        </mxCell>
      </root>
    </mxGraphModel>
  </diagram>
</mxfile>
